<?xml version="1.0" encoding="UTF-8"?><svg id="Layer_2" xmlns="http://www.w3.org/2000/svg" viewBox="0 0 15.55 16"><defs><style>.cls-1{fill:#fff;}</style></defs><g id="Layer_1-2"><path class="cls-1" d="M1.88,7.05l.04-.2.75-.2L4.56.36l-.83-.19.02-.18h1.88l.87,5.52L9.67,0h1.64l-.03.18-.91.19-.4,6.31.66.19-.03.19h-2.45l.04-.19.91-.19.42-5.81-3.11,5.42-.27.48h-.29l-.04-.48-.97-5.72-1.69,6.09.82.2-.03.2H1.88Z"/><path class="cls-1" d="M11.39,3.81h-.19c.05-.53.19-.97.42-1.32s.5-.52.81-.51c.33,0,.6.23.8.66.2.44.3,1.03.3,1.77,0,.61-.05,1.16-.14,1.67-.1.51-.21.95-.33,1.32h.04c.36-.41.68-.84.96-1.29.28-.45.5-.9.66-1.35.16-.45.24-.89.24-1.32,0-.32-.05-.59-.15-.8-.1-.21-.2-.38-.3-.5.17-.11.35-.17.55-.17.13,0,.24.05.34.16s.15.31.14.61c0,.57-.12,1.14-.33,1.7-.21.57-.49,1.12-.83,1.64-.34.53-.72,1.02-1.13,1.47-.41.45-.82.84-1.23,1.18-.41.34-.79.6-1.13.79-.34.19-.61.28-.81.28-.15,0-.28-.05-.38-.14-.1-.09-.15-.22-.15-.37s.05-.27.14-.37c.09-.1.21-.15.35-.15.3,0,.5.19.59.58h.02c.39-.15.72-.39.98-.74.27-.35.48-.75.64-1.21s.27-.93.35-1.42.11-.94.11-1.37c0-.74-.07-1.25-.2-1.54-.14-.29-.28-.44-.44-.44-.16,0-.3.09-.4.27-.1.18-.21.48-.31.89Z"/><path class="cls-1" d="M5.48,9.1h-2.41l-.61,3.03h1.56l.55-1.14h.18l-.5,2.54h-.18l-.12-1.07h-1.56l-.59,3.03.92.19-.03.19H0l.04-.19.91-.19,1.22-6.31-.84-.19.03-.18h4.2l.64-.06-.32,2.09h-.18l-.23-1.76Z"/><path class="cls-1" d="M7.16,11.45c-.07-.04-.19-.06-.35-.07s-.33.02-.51.08v-.12c.13-.13.3-.25.49-.36.2-.12.39-.18.58-.18.21,0,.37.08.46.23.09.15.1.36.02.63l-1.01,3.6h.03c.1-.07.22-.18.36-.31.14-.13.28-.27.41-.43.13-.15.24-.29.31-.4l.14.08c-.16.29-.35.57-.56.85-.21.28-.43.51-.64.69-.21.18-.39.27-.55.27s-.26-.06-.31-.19c-.05-.13-.05-.29,0-.49l1.12-3.86ZM7.28,9.02c0-.14.05-.26.15-.36s.22-.15.36-.15.26.05.36.15.15.22.15.36-.05.26-.15.36-.22.15-.36.15-.26-.05-.36-.15-.15-.22-.15-.36Z"/><path class="cls-1" d="M8.34,15.87l1.28-4.41c-.09-.04-.22-.06-.4-.06s-.33.02-.46.07v-.11c.15-.15.32-.28.53-.39.21-.11.41-.17.61-.17s.33.07.43.22c.09.14.11.32.04.54l-.43,1.46h.04c.22-.4.46-.76.72-1.1.26-.34.53-.6.81-.81.28-.2.57-.3.85-.3.26,0,.43.09.52.27.09.18.1.39.03.64l-1,3.54h.03c.19-.14.39-.32.58-.53.2-.21.36-.42.5-.61l.15.08c-.18.3-.37.59-.59.87-.21.28-.42.5-.63.67s-.39.26-.54.26c-.11,0-.21-.05-.29-.15-.08-.1-.09-.27-.02-.51l1.03-3.6c.05-.22-.02-.33-.21-.33-.16,0-.35.08-.58.25s-.45.4-.7.7c-.24.3-.47.67-.69,1.09-.22.42-.4.9-.55,1.42l-.28.95-.66.19-.14-.13Z"/></g></svg>