<svg width="120" height="33" viewBox="0 0 120 33" fill="none" xmlns="http://www.w3.org/2000/svg">
<path d="M0 22.2503L0.0939357 21.8542L1.99613 21.4582L5.28388 8.17864L3.4991 7.78259L3.56955 7.40983H7.49137L9.81628 19.0585L16.4857 7.85248L16.6736 7.40983H20.4075L20.3371 7.78259L18.4114 8.17864L16.4153 21.4582L18.1531 21.8542L18.0826 22.2503H12.5404L12.6343 21.8542L14.5835 21.4582L16.4622 9.20373L9.6284 20.6427L9.06479 21.6911H8.54814L8.40724 20.6427L5.89446 8.5747L2.93549 21.4582L4.69678 21.8542L4.62633 22.2503H0Z" fill="white"/>
<path d="M19.9448 15.4241H19.5456C19.6552 14.3059 19.9526 13.3817 20.438 12.6517C20.9233 11.9218 21.4948 11.5645 22.1523 11.5801C22.8568 11.5956 23.4204 12.0615 23.8431 12.9779C24.2659 13.8943 24.4772 15.1368 24.4772 16.7055C24.4772 17.9791 24.3754 19.1517 24.1719 20.2234C23.9684 21.2795 23.7336 22.2037 23.4674 22.9958H23.5613C24.3285 22.126 25.0095 21.2252 25.6044 20.2933C26.1994 19.3459 26.669 18.3984 27.0135 17.451C27.3579 16.488 27.5301 15.5561 27.5301 14.6553C27.5301 13.9719 27.4205 13.4128 27.2013 12.9779C26.9822 12.5275 26.7708 12.1703 26.5673 11.9062C26.9274 11.6733 27.3188 11.5568 27.7415 11.5568C28.0076 11.5568 28.2503 11.6733 28.4695 11.9062C28.6887 12.1237 28.7904 12.5508 28.7748 13.1876C28.7591 14.3835 28.5243 15.5794 28.0702 16.7754C27.6319 17.9713 27.0448 19.1284 26.309 20.2467C25.5888 21.3494 24.7903 22.3745 23.9136 23.3219C23.0525 24.2694 22.1836 25.1003 21.3069 25.8148C20.4458 26.5292 19.6552 27.0806 18.935 27.4689C18.1992 27.8727 17.6199 28.0746 17.1972 28.0746C16.8684 28.0746 16.6023 27.9737 16.3987 27.7717C16.1796 27.5854 16.07 27.3291 16.07 27.0029C16.07 26.6923 16.1717 26.4283 16.3753 26.2108C16.5631 26.0089 16.8058 25.908 17.1033 25.908C17.7452 25.908 18.16 26.3118 18.3479 27.1194H18.3949C19.2246 26.8088 19.9213 26.2885 20.4849 25.5585C21.0486 24.8285 21.4948 23.982 21.8235 23.0191C22.168 22.0561 22.4185 21.0621 22.575 20.037C22.7316 19.0119 22.8099 18.049 22.8099 17.1481C22.8099 15.595 22.6611 14.5155 22.3637 13.9098C22.0818 13.2885 21.7766 12.9779 21.4478 12.9779C21.1034 12.9779 20.8215 13.172 20.6024 13.5603C20.3832 13.9331 20.164 14.5544 19.9448 15.4241Z" fill="white"/>
<path d="M43.7588 7.99226H38.6393L37.3477 14.3757H40.6589L41.8331 11.9761H42.2088L41.1521 17.3345H40.7763L40.518 15.0747H37.2068L35.9621 21.4582L37.9113 21.8542L37.8408 22.2503H32.1342L32.2282 21.8542L34.1539 21.4582L36.7371 8.17864L34.9523 7.78259L35.0228 7.40983H43.9467L45.3087 7.29334L44.6277 11.6965H44.2519L43.7588 7.99226Z" fill="white"/>
<path d="M47.5894 7.82918C47.5894 7.53408 47.6912 7.28558 47.8947 7.08367C48.1139 6.86622 48.3722 6.7575 48.6697 6.7575C48.9671 6.7575 49.2176 6.86622 49.4212 7.08367C49.6403 7.28558 49.7499 7.53408 49.7499 7.82918C49.7499 8.12428 49.6403 8.38055 49.4212 8.598C49.2176 8.79991 48.9671 8.90086 48.6697 8.90086C48.3722 8.90086 48.1139 8.79991 47.8947 8.598C47.6912 8.38055 47.5894 8.12428 47.5894 7.82918ZM47.3311 12.9546C47.1745 12.8769 46.924 12.8304 46.5796 12.8148C46.2508 12.7993 45.8907 12.8537 45.4993 12.9779V12.7216C45.7811 12.4576 46.1256 12.2013 46.5326 11.9528C46.9553 11.7043 47.3702 11.5801 47.7773 11.5801C48.2313 11.5801 48.5523 11.7431 48.7401 12.0693C48.9437 12.3799 48.9593 12.8148 48.7871 13.374L46.6501 20.9456H46.7205C46.9397 20.7903 47.198 20.5729 47.4955 20.2933C47.7929 20.0137 48.0826 19.7186 48.3644 19.408C48.6462 19.0818 48.8654 18.7945 49.0219 18.546L49.3272 18.7091C48.9828 19.3148 48.5836 19.9128 48.1295 20.503C47.6755 21.0776 47.2215 21.5591 46.7675 21.9474C46.3291 22.3202 45.9455 22.5065 45.6168 22.5065C45.288 22.5065 45.0688 22.3745 44.9592 22.1105C44.8496 21.8464 44.8496 21.5047 44.9592 21.0854L47.3311 12.9546Z" fill="white"/>
<path d="M49.8363 22.2503L52.5605 12.9546C52.3726 12.8769 52.0908 12.8381 51.7151 12.8381C51.3393 12.8381 51.0105 12.8847 50.7287 12.9779V12.7449C51.0419 12.4343 51.4176 12.1625 51.856 11.9295C52.2943 11.6965 52.7249 11.5801 53.1476 11.5801C53.5546 11.5801 53.8521 11.7354 54.04 12.046C54.2435 12.3411 54.2748 12.7139 54.1339 13.1643L53.218 16.2395H53.312C53.7816 15.4008 54.2905 14.632 54.8384 13.9331C55.3864 13.2186 55.9578 12.6517 56.5527 12.2324C57.1633 11.7975 57.7661 11.5801 58.361 11.5801C58.909 11.5801 59.2769 11.7742 59.4648 12.1625C59.6526 12.5353 59.6761 12.9779 59.5352 13.4904L57.4217 20.9456H57.4921C57.8992 20.6505 58.3062 20.2778 58.7133 19.8273C59.136 19.3769 59.4961 18.9498 59.7935 18.546L60.1223 18.7091C59.7466 19.3459 59.3317 19.9594 58.8777 20.5496C58.4236 21.1242 57.9774 21.5979 57.5391 21.9707C57.1007 22.3279 56.7171 22.5065 56.3884 22.5065C56.1535 22.5065 55.95 22.3978 55.7778 22.1804C55.6056 21.9629 55.5899 21.6057 55.7308 21.1087L57.9148 13.537C58.0244 13.0711 57.8757 12.8381 57.4686 12.8381C57.1242 12.8381 56.7171 13.0167 56.2475 13.374C55.7778 13.7157 55.2846 14.2049 54.768 14.8417C54.2513 15.4785 53.7582 16.2473 53.2885 17.1481C52.8345 18.0334 52.4509 19.0275 52.1378 20.1302L51.5507 22.1338L50.1416 22.5298L49.8363 22.2503Z" fill="white"/>
<path d="M70.0797 10.9743H70.7607L67.9661 20.9456H68.0366C68.428 20.6505 68.835 20.2778 69.2577 19.8273C69.6804 19.3769 70.0405 18.9498 70.338 18.546L70.6433 18.7091C70.2675 19.3459 69.8527 19.9594 69.3986 20.5496C68.9446 21.1242 68.4984 21.5979 68.06 21.9707C67.6373 22.3279 67.2616 22.5065 66.9328 22.5065C66.6823 22.5065 66.471 22.39 66.2988 22.1571C66.1265 21.9086 66.1422 21.4737 66.3457 20.8524L67.379 17.5209H67.2851C66.9406 18.0645 66.5649 18.6314 66.1578 19.2216C65.7664 19.7963 65.3516 20.3399 64.9132 20.8524C64.4905 21.3494 64.0521 21.7533 63.5981 22.0639C63.1441 22.3745 62.6744 22.5298 62.1891 22.5298C61.7037 22.5298 61.2967 22.359 60.9679 22.0173C60.6391 21.6756 60.4982 21.1242 60.5452 20.3632C60.6078 19.3692 60.8192 18.445 61.1793 17.5908C61.5393 16.721 61.9934 15.9367 62.5413 15.2378C63.0893 14.5233 63.6686 13.9098 64.2791 13.3973C64.9054 12.8847 65.516 12.4964 66.1109 12.2324C66.7058 11.9528 67.2225 11.813 67.6608 11.813C68.0209 11.813 68.334 11.8519 68.6002 11.9295C68.882 12.0072 69.1246 12.1081 69.3282 12.2324L70.0797 10.9743ZM62.4239 20.0836C62.4083 20.5651 62.463 20.899 62.5883 21.0854C62.7135 21.2562 62.8701 21.3417 63.058 21.3417C63.3554 21.3417 63.6999 21.1786 64.0913 20.8524C64.4827 20.5107 64.8897 20.0836 65.3124 19.5711C65.7351 19.043 66.1344 18.4839 66.5101 17.8937C66.9015 17.3035 67.2381 16.7443 67.5199 16.2162C67.8017 15.6726 67.9974 15.2378 68.107 14.9116L68.6471 13.2808C68.2244 12.7216 67.7626 12.4421 67.2616 12.4421C66.7293 12.4421 66.1892 12.6673 65.6412 13.1177C65.0932 13.5526 64.5844 14.1428 64.1148 14.8883C63.6451 15.6183 63.2537 16.4337 62.9405 17.3345C62.6431 18.2353 62.4709 19.1517 62.4239 20.0836Z" fill="white"/>
<path d="M71.2333 22.2503L73.9574 12.9546C73.7696 12.8769 73.4878 12.8381 73.112 12.8381C72.7363 12.8381 72.4075 12.8847 72.1257 12.9779V12.7449C72.4388 12.4343 72.8146 12.1625 73.2529 11.9295C73.6913 11.6965 74.1218 11.5801 74.5445 11.5801C74.9516 11.5801 75.2491 11.7354 75.4369 12.046C75.6405 12.3411 75.6718 12.7139 75.5309 13.1643L74.615 16.2395H74.7089C75.1786 15.4008 75.6874 14.632 76.2354 13.9331C76.7833 13.2186 77.3548 12.6517 77.9497 12.2324C78.5603 11.7975 79.163 11.5801 79.758 11.5801C80.3059 11.5801 80.6738 11.7742 80.8617 12.1625C81.0496 12.5353 81.0731 12.9779 80.9322 13.4904L78.8186 20.9456H78.8891C79.2961 20.6505 79.7032 20.2778 80.1102 19.8273C80.5329 19.3769 80.893 18.9498 81.1905 18.546L81.5193 18.7091C81.1435 19.3459 80.7286 19.9594 80.2746 20.5496C79.8206 21.1242 79.3744 21.5979 78.936 21.9707C78.4977 22.3279 78.1141 22.5065 77.7853 22.5065C77.5505 22.5065 77.347 22.3978 77.1747 22.1804C77.0025 21.9629 76.9869 21.6057 77.1278 21.1087L79.3118 13.537C79.4214 13.0711 79.2726 12.8381 78.8656 12.8381C78.5212 12.8381 78.1141 13.0167 77.6444 13.374C77.1747 13.7157 76.6816 14.2049 76.1649 14.8417C75.6483 15.4785 75.1551 16.2473 74.6854 17.1481C74.2314 18.0334 73.8479 19.0275 73.5347 20.1302L72.9476 22.1338L71.5386 22.5298L71.2333 22.2503Z" fill="white"/>
<path d="M87.5079 12.512C87.1165 12.512 86.7094 12.7216 86.2867 13.141C85.8796 13.5603 85.4961 14.1117 85.136 14.7951C84.7759 15.463 84.4784 16.1929 84.2436 16.9851C84.0244 17.7616 83.9148 18.5072 83.9148 19.2216C83.9148 19.8739 84.0557 20.3787 84.3375 20.7359C84.6193 21.0932 84.9794 21.2718 85.4178 21.2718C86.1066 21.2718 86.7251 20.9922 87.273 20.4331C87.821 19.8739 88.3846 19.2138 88.9638 18.4528L89.3631 18.6625C89.003 19.2837 88.5959 19.8972 88.1419 20.503C87.6879 21.0932 87.1712 21.5824 86.592 21.9707C86.0127 22.359 85.3395 22.5531 84.5724 22.5531C83.8052 22.5531 83.2025 22.2813 82.7641 21.7377C82.3414 21.1941 82.13 20.5185 82.13 19.7108C82.13 18.9032 82.2788 18.08 82.5762 17.2413C82.8893 16.3871 83.3277 15.5639 83.8913 14.7718C84.4706 13.9797 85.1595 13.273 85.9579 12.6517C86.3806 12.31 86.8503 12.046 87.3669 11.8596C87.8836 11.6577 88.4081 11.5568 88.9404 11.5568C89.4414 11.5568 89.8484 11.6733 90.1615 11.9062C90.4903 12.1392 90.6547 12.4032 90.6547 12.6983C90.6547 12.8537 90.5921 13.0478 90.4668 13.2808C90.3416 13.5137 90.2163 13.6924 90.0911 13.8166C89.7466 13.4594 89.3396 13.1565 88.8699 12.908C88.4159 12.644 87.9619 12.512 87.5079 12.512Z" fill="white"/>
<path d="M93.1812 7.82918C93.1812 7.53408 93.283 7.28558 93.4865 7.08367C93.7057 6.86622 93.964 6.7575 94.2615 6.7575C94.5589 6.7575 94.8094 6.86622 95.013 7.08367C95.2322 7.28558 95.3417 7.53408 95.3417 7.82918C95.3417 8.12428 95.2322 8.38055 95.013 8.598C94.8094 8.79991 94.5589 8.90086 94.2615 8.90086C93.964 8.90086 93.7057 8.79991 93.4865 8.598C93.283 8.38055 93.1812 8.12428 93.1812 7.82918ZM92.9229 12.9546C92.7663 12.8769 92.5158 12.8304 92.1714 12.8148C91.8426 12.7993 91.4826 12.8537 91.0912 12.9779V12.7216C91.373 12.4576 91.7174 12.2013 92.1244 11.9528C92.5472 11.7043 92.962 11.5801 93.3691 11.5801C93.8231 11.5801 94.1441 11.7431 94.3319 12.0693C94.5355 12.3799 94.5511 12.8148 94.3789 13.374L92.2419 20.9456H92.3123C92.5315 20.7903 92.7898 20.5729 93.0873 20.2933C93.3848 20.0137 93.6744 19.7186 93.9562 19.408C94.238 19.0818 94.4572 18.7945 94.6137 18.546L94.919 18.7091C94.5746 19.3148 94.1754 19.9128 93.7214 20.503C93.2673 21.0776 92.8133 21.5591 92.3593 21.9474C91.9209 22.3202 91.5374 22.5065 91.2086 22.5065C90.8798 22.5065 90.6606 22.3745 90.551 22.1105C90.4414 21.8464 90.4414 21.5047 90.551 21.0854L92.9229 12.9546Z" fill="white"/>
<path d="M104.916 10.9743H105.597L102.802 20.9456H102.873C103.264 20.6505 103.671 20.2778 104.094 19.8273C104.516 19.3769 104.877 18.9498 105.174 18.546L105.479 18.7091C105.104 19.3459 104.689 19.9594 104.235 20.5496C103.781 21.1242 103.334 21.5979 102.896 21.9707C102.473 22.3279 102.098 22.5065 101.769 22.5065C101.518 22.5065 101.307 22.39 101.135 22.1571C100.963 21.9086 100.978 21.4737 101.182 20.8524L102.215 17.5209H102.121C101.777 18.0645 101.401 18.6314 100.994 19.2216C100.602 19.7963 100.188 20.3399 99.7492 20.8524C99.3265 21.3494 98.8881 21.7533 98.4341 22.0639C97.9801 22.3745 97.5104 22.5298 97.0251 22.5298C96.5397 22.5298 96.1327 22.359 95.8039 22.0173C95.4751 21.6756 95.3342 21.1242 95.3812 20.3632C95.4438 19.3692 95.6552 18.445 96.0153 17.5908C96.3753 16.721 96.8294 15.9367 97.3773 15.2378C97.9253 14.5233 98.5046 13.9098 99.1151 13.3973C99.7414 12.8847 100.352 12.4964 100.947 12.2324C101.542 11.9528 102.058 11.813 102.497 11.813C102.857 11.813 103.17 11.8519 103.436 11.9295C103.718 12.0072 103.961 12.1081 104.164 12.2324L104.916 10.9743ZM97.2599 20.0836C97.2443 20.5651 97.299 20.899 97.4243 21.0854C97.5495 21.2562 97.7061 21.3417 97.894 21.3417C98.1914 21.3417 98.5359 21.1786 98.9273 20.8524C99.3187 20.5107 99.7257 20.0836 100.148 19.5711C100.571 19.043 100.97 18.4839 101.346 17.8937C101.738 17.3035 102.074 16.7443 102.356 16.2162C102.638 15.6726 102.833 15.2378 102.943 14.9116L103.483 13.2808C103.06 12.7216 102.599 12.4421 102.098 12.4421C101.565 12.4421 101.025 12.6673 100.477 13.1177C99.9292 13.5526 99.4204 14.1428 98.9508 14.8883C98.4811 15.6183 98.0897 16.4337 97.7766 17.3345C97.4791 18.2353 97.3069 19.1517 97.2599 20.0836Z" fill="white"/>
<path d="M110.766 18.7091C110.531 19.1129 110.249 19.54 109.921 19.9904C109.608 20.4253 109.271 20.8369 108.911 21.2252C108.566 21.5979 108.23 21.9086 107.901 22.1571C107.572 22.39 107.283 22.5065 107.032 22.5065C106.703 22.5065 106.484 22.3823 106.375 22.1338C106.265 21.8697 106.265 21.528 106.375 21.1087L110.085 7.31664L108.7 6.38474L108.746 6.24496L112.175 5.56934L108.065 20.9456H108.136C108.527 20.666 108.927 20.3088 109.334 19.8739C109.741 19.439 110.109 18.9964 110.437 18.546L110.766 18.7091Z" fill="white"/>
<path d="M116.814 19.4313C116.814 19.8662 116.634 20.3243 116.274 20.8058C115.914 21.2873 115.444 21.6989 114.865 22.0406C114.301 22.3823 113.699 22.5531 113.057 22.5531C112.305 22.5531 111.742 22.3823 111.366 22.0406C111.006 21.6834 110.834 21.3339 110.849 20.9922C110.849 20.7592 110.904 20.534 111.014 20.3166C111.123 20.0991 111.233 19.9516 111.342 19.8739H111.366C111.695 20.3554 112.102 20.7748 112.587 21.132C113.072 21.4737 113.566 21.6445 114.066 21.6445C114.474 21.6445 114.787 21.5203 115.006 21.2718C115.241 21.0077 115.358 20.7049 115.358 20.3632C115.358 20.0681 115.28 19.7807 115.123 19.5012C114.967 19.2216 114.795 18.9343 114.607 18.6392L113.667 17.0549C113.401 16.6045 113.19 16.2551 113.033 16.0066C112.892 15.7425 112.791 15.5251 112.728 15.3542C112.681 15.1679 112.657 14.9659 112.657 14.7485C112.657 14.3136 112.791 13.9098 113.057 13.537C113.323 13.1488 113.659 12.8071 114.066 12.512C114.489 12.2169 114.92 11.9916 115.358 11.8363C115.796 11.6655 116.188 11.5801 116.532 11.5801C117.174 11.5801 117.605 11.7121 117.824 11.9761C118.043 12.2246 118.153 12.5042 118.153 12.8148C118.153 13.172 118.012 13.5293 117.73 13.8865H117.683C117.307 13.4827 116.939 13.1565 116.579 12.908C116.219 12.644 115.828 12.512 115.405 12.512C115.061 12.512 114.755 12.6362 114.489 12.8847C114.223 13.1177 114.09 13.4283 114.09 13.8166C114.09 14.0496 114.129 14.2593 114.207 14.4456C114.286 14.632 114.458 14.9504 114.724 15.4008L115.898 17.3112C116.227 17.8393 116.462 18.2431 116.603 18.5227C116.744 18.7867 116.814 19.0896 116.814 19.4313Z" fill="white"/>
</svg>
