<svg width="256" height="68" viewBox="0 0 256 68" fill="none" xmlns="http://www.w3.org/2000/svg">
<g clip-path="url(#clip0_2550_4232)">
<path d="M0 45.4317L0.203529 44.5667L4.325 43.7017L11.4485 14.6988L7.58146 13.8338L7.73411 13.0197H16.2315L21.2688 38.4609L35.7194 13.9865L36.1264 13.0197H44.2167L44.0641 13.8338L39.8917 14.6988L35.5667 43.7017L39.332 44.5667L39.1794 45.4317H27.1712L27.3747 44.5667L31.5979 43.7017L35.6685 16.9376L20.8617 41.9209L19.6406 44.2106H18.5212L18.2159 41.9209L12.7715 15.5638L6.36029 43.7017L10.1765 44.5667L10.0238 45.4317H0Z" fill="white"/>
<path d="M43.2142 30.5232H42.3492C42.5866 28.0809 43.2311 26.0625 44.2827 24.4682C45.3343 22.8739 46.5724 22.0937 47.9971 22.1276C49.5236 22.1616 50.7448 23.1792 51.6606 25.1806C52.5765 27.1819 53.0345 29.8957 53.0345 33.3217C53.0345 36.1033 52.814 38.6644 52.373 41.005C51.932 43.3116 51.4232 45.33 50.8465 47.06H51.0501C52.7122 45.1604 54.1878 43.1929 55.4768 41.1576C56.7658 39.0884 57.7835 37.0192 58.5298 34.95C59.276 32.8468 59.6492 30.8115 59.6492 28.8441C59.6492 27.3516 59.4117 26.1304 58.9368 25.1806C58.4619 24.1968 58.004 23.4167 57.563 22.84C58.3432 22.3312 59.1912 22.0768 60.1071 22.0768C60.6838 22.0768 61.2096 22.3312 61.6845 22.84C62.1594 23.3149 62.3799 24.2477 62.3459 25.6385C62.312 28.2505 61.8032 30.8624 60.8195 33.4744C59.8697 36.0863 58.5976 38.6135 57.0033 41.0559C55.4429 43.4643 53.7129 45.7031 51.8133 47.7723C49.9476 49.8415 48.065 51.6563 46.1654 53.2167C44.2997 54.7771 42.5866 55.9813 41.0262 56.8294C39.4319 57.7113 38.1768 58.1523 37.261 58.1523C36.5486 58.1523 35.9719 57.9318 35.531 57.4908C35.0561 57.0838 34.8186 56.5241 34.8186 55.8117C34.8186 55.1333 35.0391 54.5566 35.4801 54.0817C35.8871 53.6407 36.4129 53.4203 37.0574 53.4203C38.4482 53.4203 39.3471 54.3022 39.7542 56.0661H39.8559C41.6538 55.3877 43.1633 54.2513 44.3845 52.657C45.6057 51.0627 46.5724 49.214 47.2848 47.1108C48.031 45.0077 48.5738 42.8367 48.913 40.5979C49.2522 38.3591 49.4218 36.256 49.4218 34.2885C49.4218 30.8964 49.0996 28.5388 48.4551 27.2159C47.8445 25.859 47.183 25.1806 46.4706 25.1806C45.7244 25.1806 45.1138 25.6046 44.6389 26.4526C44.164 27.2667 43.6891 28.6236 43.2142 30.5232Z" fill="white"/>
<path d="M94.8116 14.2918H83.7193L80.9207 28.2335H88.0952L90.6393 22.9926H91.4534L89.1637 34.6956H88.3496L87.7899 29.76H80.6155L77.9187 43.7017L82.1419 44.5667L81.9893 45.4317H69.6249L69.8284 44.5667L74.0008 43.7017L79.5978 14.6988L75.7308 13.8338L75.8834 13.0197H95.2187L98.1699 12.7653L96.6943 22.382H95.8801L94.8116 14.2918Z" fill="white"/>
<path d="M103.111 13.9356C103.111 13.2911 103.332 12.7483 103.773 12.3073C104.248 11.8324 104.807 11.595 105.452 11.595C106.096 11.595 106.639 11.8324 107.08 12.3073C107.555 12.7483 107.793 13.2911 107.793 13.9356C107.793 14.5801 107.555 15.1398 107.08 15.6147C106.639 16.0557 106.096 16.2762 105.452 16.2762C104.807 16.2762 104.248 16.0557 103.773 15.6147C103.332 15.1398 103.111 14.5801 103.111 13.9356ZM102.552 25.1297C102.212 24.9601 101.67 24.8583 100.923 24.8244C100.211 24.7905 99.4309 24.9092 98.5829 25.1806V24.6209C99.1935 24.0442 99.9397 23.4845 100.822 22.9418C101.738 22.399 102.636 22.1276 103.518 22.1276C104.502 22.1276 105.198 22.4838 105.605 23.1962C106.046 23.8746 106.08 24.8244 105.706 26.0456L101.076 42.5823H101.229C101.704 42.2431 102.263 41.7682 102.908 41.1576C103.552 40.547 104.18 39.9025 104.791 39.2241C105.401 38.5117 105.876 37.8842 106.215 37.3414L106.877 37.6976C106.13 39.0206 105.265 40.3265 104.282 41.6156C103.298 42.8707 102.314 43.9222 101.331 44.7703C100.381 45.5844 99.5496 45.9914 98.8373 45.9914C98.1249 45.9914 97.65 45.7031 97.4126 45.1264C97.1751 44.5498 97.1751 43.8035 97.4126 42.8876L102.552 25.1297Z" fill="white"/>
<path d="M107.98 45.4317L113.882 25.1297C113.475 24.9601 112.865 24.8753 112.05 24.8753C111.236 24.8753 110.524 24.977 109.913 25.1806V24.6717C110.592 23.9933 111.406 23.3997 112.356 22.8909C113.305 22.382 114.238 22.1276 115.154 22.1276C116.036 22.1276 116.681 22.4668 117.088 23.1453C117.529 23.7898 117.597 24.6039 117.291 25.5876L115.307 32.3041H115.51C116.528 30.4723 117.63 28.7932 118.818 27.2667C120.005 25.7064 121.243 24.4682 122.532 23.5523C123.855 22.6025 125.161 22.1276 126.45 22.1276C127.637 22.1276 128.434 22.5517 128.842 23.3997C129.249 24.2138 129.299 25.1806 128.994 26.3L124.415 42.5823H124.567C125.449 41.9378 126.331 41.1237 127.213 40.14C128.129 39.1562 128.909 38.2234 129.554 37.3414L130.266 37.6976C129.452 39.0884 128.553 40.4283 127.569 41.7173C126.586 42.9724 125.619 44.007 124.669 44.8211C123.719 45.6013 122.888 45.9914 122.176 45.9914C121.667 45.9914 121.226 45.754 120.853 45.2791C120.48 44.8042 120.446 44.024 120.751 42.9385L125.483 26.4017C125.721 25.3841 125.399 24.8753 124.517 24.8753C123.77 24.8753 122.888 25.2654 121.871 26.0456C120.853 26.7918 119.784 27.8604 118.665 29.2512C117.546 30.6419 116.477 32.3211 115.459 34.2885C114.476 36.222 113.645 38.393 112.966 40.8014L111.694 45.1773L108.641 46.0423L107.98 45.4317Z" fill="white"/>
<path d="M151.841 20.8047H153.316L147.261 42.5823H147.414C148.262 41.9378 149.144 41.1237 150.06 40.14C150.976 39.1562 151.756 38.2234 152.4 37.3414L153.062 37.6976C152.248 39.0884 151.349 40.4283 150.365 41.7173C149.381 42.9724 148.415 44.007 147.465 44.8211C146.549 45.6013 145.735 45.9914 145.023 45.9914C144.48 45.9914 144.022 45.737 143.649 45.2282C143.276 44.6855 143.309 43.7357 143.75 42.3788L145.989 35.1026H145.786C145.039 36.2899 144.225 37.528 143.343 38.817C142.495 40.0721 141.596 41.2594 140.647 42.3788C139.731 43.4643 138.781 44.3462 137.797 45.0247C136.813 45.7031 135.796 46.0423 134.744 46.0423C133.693 46.0423 132.811 45.6692 132.098 44.9229C131.386 44.1766 131.081 42.9724 131.183 41.3103C131.318 39.1393 131.776 37.121 132.556 35.2553C133.337 33.3557 134.32 31.6426 135.508 30.1162C136.695 28.5558 137.95 27.2159 139.273 26.0965C140.63 24.977 141.953 24.129 143.242 23.5523C144.531 22.9418 145.65 22.6365 146.6 22.6365C147.38 22.6365 148.058 22.7213 148.635 22.8909C149.246 23.0605 149.772 23.281 150.213 23.5523L151.841 20.8047ZM135.253 40.6997C135.219 41.7512 135.338 42.4806 135.609 42.8876C135.881 43.2608 136.22 43.4473 136.627 43.4473C137.271 43.4473 138.018 43.0911 138.866 42.3788C139.714 41.6325 140.596 40.6997 141.512 39.5803C142.428 38.4269 143.293 37.2058 144.107 35.9167C144.955 34.6277 145.684 33.4065 146.295 32.2532C146.905 31.066 147.329 30.1162 147.567 29.4038L148.737 25.842C147.821 24.6209 146.82 24.0103 145.735 24.0103C144.582 24.0103 143.411 24.5021 142.224 25.4859C141.037 26.4357 139.934 27.7247 138.917 29.3529C137.899 30.9472 137.051 32.7281 136.373 34.6956C135.728 36.663 135.355 38.6644 135.253 40.6997Z" fill="white"/>
<path d="M154.34 45.4317L160.243 25.1297C159.836 24.9601 159.225 24.8753 158.411 24.8753C157.597 24.8753 156.884 24.977 156.274 25.1806V24.6717C156.952 23.9933 157.766 23.3997 158.716 22.8909C159.666 22.382 160.599 22.1276 161.515 22.1276C162.397 22.1276 163.041 22.4668 163.448 23.1453C163.889 23.7898 163.957 24.6039 163.652 25.5876L161.667 32.3041H161.871C162.889 30.4723 163.991 28.7932 165.178 27.2667C166.366 25.7064 167.604 24.4682 168.893 23.5523C170.216 22.6025 171.522 22.1276 172.811 22.1276C173.998 22.1276 174.795 22.5517 175.202 23.3997C175.609 24.2138 175.66 25.1806 175.355 26.3L170.775 42.5823H170.928C171.81 41.9378 172.692 41.1237 173.574 40.14C174.49 39.1562 175.27 38.2234 175.914 37.3414L176.627 37.6976C175.813 39.0884 174.914 40.4283 173.93 41.7173C172.946 42.9724 171.98 44.007 171.03 44.8211C170.08 45.6013 169.249 45.9914 168.537 45.9914C168.028 45.9914 167.587 45.754 167.214 45.2791C166.84 44.8042 166.807 44.024 167.112 42.9385L171.844 26.4017C172.081 25.3841 171.759 24.8753 170.877 24.8753C170.131 24.8753 169.249 25.2654 168.231 26.0456C167.214 26.7918 166.145 27.8604 165.026 29.2512C163.906 30.6419 162.838 32.3211 161.82 34.2885C160.836 36.222 160.005 38.393 159.327 40.8014L158.055 45.1773L155.002 46.0423L154.34 45.4317Z" fill="white"/>
<path d="M189.602 24.1629C188.754 24.1629 187.872 24.6209 186.956 25.5367C186.074 26.4526 185.243 27.6568 184.463 29.1494C183.683 30.608 183.038 32.2023 182.53 33.9323C182.055 35.6284 181.817 37.2566 181.817 38.817C181.817 40.2417 182.122 41.3442 182.733 42.1244C183.344 42.9046 184.124 43.2947 185.074 43.2947C186.566 43.2947 187.906 42.6841 189.093 41.4629C190.281 40.2417 191.502 38.8001 192.757 37.1379L193.622 37.5959C192.842 38.9527 191.96 40.2926 190.976 41.6156C189.992 42.9046 188.873 43.9731 187.618 44.8211C186.363 45.6692 184.904 46.0932 183.242 46.0932C181.58 46.0932 180.274 45.4996 179.324 44.3123C178.408 43.1251 177.95 41.6495 177.95 39.8856C177.95 38.1216 178.272 36.3238 178.917 34.492C179.595 32.6263 180.545 30.8285 181.766 29.0985C183.021 27.3685 184.514 25.8251 186.244 24.4682C187.16 23.7219 188.177 23.1453 189.297 22.7382C190.416 22.2972 191.553 22.0768 192.706 22.0768C193.791 22.0768 194.673 22.3312 195.352 22.84C196.064 23.3488 196.42 23.9255 196.42 24.57C196.42 24.9092 196.285 25.3332 196.013 25.842C195.742 26.3509 195.471 26.741 195.199 27.0123C194.453 26.2321 193.571 25.5707 192.553 25.0279C191.57 24.4513 190.586 24.1629 189.602 24.1629Z" fill="white"/>
<path d="M201.895 13.9356C201.895 13.2911 202.115 12.7483 202.556 12.3073C203.031 11.8324 203.591 11.595 204.235 11.595C204.88 11.595 205.422 11.8324 205.863 12.3073C206.338 12.7483 206.576 13.2911 206.576 13.9356C206.576 14.5801 206.338 15.1398 205.863 15.6147C205.422 16.0557 204.88 16.2762 204.235 16.2762C203.591 16.2762 203.031 16.0557 202.556 15.6147C202.115 15.1398 201.895 14.5801 201.895 13.9356ZM201.335 25.1297C200.996 24.9601 200.453 24.8583 199.707 24.8244C198.994 24.7905 198.214 24.9092 197.366 25.1806V24.6209C197.977 24.0442 198.723 23.4845 199.605 22.9418C200.521 22.399 201.42 22.1276 202.302 22.1276C203.285 22.1276 203.981 22.4838 204.388 23.1962C204.829 23.8746 204.863 24.8244 204.49 26.0456L199.859 42.5823H200.012C200.487 42.2431 201.047 41.7682 201.691 41.1576C202.336 40.547 202.963 39.9025 203.574 39.2241C204.184 38.5117 204.659 37.8842 204.998 37.3414L205.66 37.6976C204.914 39.0206 204.049 40.3265 203.065 41.6156C202.081 42.8707 201.097 43.9222 200.114 44.7703C199.164 45.5844 198.333 45.9914 197.621 45.9914C196.908 45.9914 196.433 45.7031 196.196 45.1264C195.958 44.5498 195.958 43.8035 196.196 42.8876L201.335 25.1297Z" fill="white"/>
<path d="M227.319 20.8047H228.795L222.74 42.5823H222.893C223.741 41.9378 224.623 41.1237 225.539 40.14C226.454 39.1562 227.235 38.2234 227.879 37.3414L228.541 37.6976C227.727 39.0884 226.828 40.4283 225.844 41.7173C224.86 42.9724 223.893 44.007 222.944 44.8211C222.028 45.6013 221.214 45.9914 220.501 45.9914C219.959 45.9914 219.501 45.737 219.127 45.2282C218.754 44.6855 218.788 43.7357 219.229 42.3788L221.468 35.1026H221.264C220.518 36.2899 219.704 37.528 218.822 38.817C217.974 40.0721 217.075 41.2594 216.125 42.3788C215.209 43.4643 214.26 44.3462 213.276 45.0247C212.292 45.7031 211.275 46.0423 210.223 46.0423C209.171 46.0423 208.289 45.6692 207.577 44.9229C206.865 44.1766 206.559 42.9724 206.661 41.3103C206.797 39.1393 207.255 37.121 208.035 35.2553C208.815 33.3557 209.799 31.6426 210.986 30.1162C212.174 28.5558 213.429 27.2159 214.752 26.0965C216.108 24.977 217.431 24.129 218.72 23.5523C220.009 22.9418 221.129 22.6365 222.079 22.6365C222.859 22.6365 223.537 22.7213 224.114 22.8909C224.724 23.0605 225.25 23.281 225.691 23.5523L227.319 20.8047ZM210.732 40.6997C210.698 41.7512 210.817 42.4806 211.088 42.8876C211.359 43.2608 211.699 43.4473 212.106 43.4473C212.75 43.4473 213.496 43.0911 214.344 42.3788C215.193 41.6325 216.074 40.6997 216.99 39.5803C217.906 38.4269 218.771 37.2058 219.585 35.9167C220.433 34.6277 221.163 33.4065 221.773 32.2532C222.384 31.066 222.808 30.1162 223.045 29.4038L224.216 25.842C223.3 24.6209 222.299 24.0103 221.214 24.0103C220.06 24.0103 218.89 24.5021 217.703 25.4859C216.515 26.4357 215.413 27.7247 214.395 29.3529C213.378 30.9472 212.53 32.7281 211.851 34.6956C211.207 36.663 210.834 38.6644 210.732 40.6997Z" fill="white"/>
<path d="M239.996 37.6976C239.487 38.5796 238.876 39.5124 238.164 40.4961C237.485 41.4459 236.756 42.3449 235.976 43.1929C235.23 44.007 234.5 44.6855 233.788 45.2282C233.076 45.737 232.448 45.9914 231.905 45.9914C231.193 45.9914 230.718 45.7201 230.481 45.1773C230.243 44.6007 230.243 43.8544 230.481 42.9385L238.52 12.8162L235.518 10.7809L235.62 10.4756L243.048 9L234.144 42.5823H234.297C235.145 41.9717 236.01 41.1915 236.892 40.2417C237.774 39.2919 238.571 38.3252 239.283 37.3414L239.996 37.6976Z" fill="white"/>
<path d="M253.1 39.275C253.1 40.2248 252.71 41.2255 251.929 42.277C251.149 43.3286 250.132 44.2275 248.876 44.9738C247.655 45.7201 246.349 46.0932 244.959 46.0932C243.33 46.0932 242.109 45.7201 241.295 44.9738C240.515 44.1936 240.142 43.4304 240.176 42.6841C240.176 42.1753 240.294 41.6834 240.532 41.2085C240.769 40.7336 241.007 40.4113 241.244 40.2417H241.295C242.007 41.2933 242.889 42.2092 243.941 42.9894C244.992 43.7357 246.061 44.1088 247.146 44.1088C248.028 44.1088 248.707 43.8374 249.182 43.2947C249.691 42.718 249.945 42.0565 249.945 41.3103C249.945 40.6658 249.775 40.0382 249.436 39.4276C249.097 38.817 248.724 38.1895 248.317 37.545L246.281 34.085C245.705 33.1013 245.247 32.338 244.908 31.7953C244.602 31.2186 244.382 30.7437 244.246 30.3706C244.144 29.9635 244.094 29.5225 244.094 29.0476C244.094 28.0978 244.382 27.2159 244.959 26.4017C245.535 25.5537 246.265 24.8074 247.146 24.1629C248.062 23.5184 248.995 23.0266 249.945 22.6873C250.895 22.3142 251.743 22.1276 252.489 22.1276C253.88 22.1276 254.813 22.416 255.288 22.9926C255.763 23.5354 256 24.146 256 24.8244C256 25.6046 255.695 26.3848 255.084 27.165H254.982C254.168 26.283 253.371 25.5707 252.591 25.0279C251.811 24.4513 250.963 24.1629 250.047 24.1629C249.3 24.1629 248.639 24.4343 248.062 24.977C247.486 25.4859 247.197 26.1643 247.197 27.0123C247.197 27.5212 247.282 27.9791 247.452 28.3862C247.621 28.7932 247.995 29.4886 248.571 30.4723L251.115 34.6447C251.828 35.798 252.336 36.68 252.642 37.2906C252.947 37.8672 253.1 38.5287 253.1 39.275Z" fill="white"/>
</g>
<defs>
<clipPath id="clip0_2550_4232">
<rect width="255.94" height="67.33" fill="white"/>
</clipPath>
</defs>
</svg>
